<?xml version="1.0" encoding="UTF-8"?><svg id="a" xmlns="http://www.w3.org/2000/svg" xmlns:xlink="http://www.w3.org/1999/xlink" viewBox="0 0 192.95 91.88"><defs><style>.c{fill:url(#b);}.d{fill:none;}.e{fill:#00b6d3;}.f{fill:#fff;}.g{fill:#231f20;}</style><pattern id="b" x="0" y="0" width="31.49" height="31.49" patternTransform="translate(-8416.28 -6935.41) scale(.12)" patternUnits="userSpaceOnUse" viewBox="0 0 31.49 31.49"><g><rect class="d" x="0" y="0" width="31.49" height="31.49"/><rect class="e" x="0" y="0" width="31.49" height="31.49"/></g></pattern></defs><path class="f" d="M179.11,53.21c0-.53-.05-.97-.09-1.39l-.05-.44c-1.18-8.73-7.23-14.16-15.79-14.16-5.91,0-10.83,2.59-13.86,6.79-2.17-4.19-6.29-6.79-11.48-6.79-2.3,0-4.53,.62-6.43,1.71-1.24-.96-2.78-1.46-4.31-1.46-2.33,0-4.68,1.14-5.96,3.35l-4.44-3.23c-.36-.26-.76-.47-1.16-.63,.41-.16,.8-.36,1.17-.63l5.45-3.97c1.39-1.01,2.22-2.65,2.22-4.37s-.83-3.36-2.22-4.37l-5.46-3.97c-1.65-1.2-3.81-1.37-5.63-.44-1.82,.93-2.95,2.77-2.95,4.81v7.93c0,2.04,1.13,3.89,2.95,4.81,.14,.07,.29,.13,.43,.19-.15,.06-.29,.11-.44,.19-1.78,.91-2.89,2.69-2.94,4.68-2.85-2.88-6.74-4.61-11.18-4.61-1.58,0-3.07,.21-4.47,.63v-7.17c0-4.9-3.57-7.46-7.1-7.46s-7.1,2.56-7.1,7.46v6.71c-.54-.11-1.11-.17-1.7-.17-1.93,0-3.8,.56-5.43,1.56-1.21-.86-2.67-1.3-4.13-1.3-1.59,0-3.19,.54-4.45,1.59-1.29-1.05-2.9-1.59-4.51-1.59-3.53,0-7.1,2.56-7.1,7.46v10.64c0,.45-.09,2.71-1.79,2.71-.12,0-.2,0-.25-.02-.11-.2-.4-.88-.4-2.6v-10.74c0-4.9-3.57-7.46-7.1-7.46-1.67,0-3.35,.58-4.65,1.71-1.04-.75-2.39-1.22-4.04-1.24v-.29c0-4.83-3.55-7.36-7.05-7.36s-7.05,2.53-7.05,7.36v.53c-3.16,.81-4.8,3.54-4.8,6.24s1.64,5.43,4.8,6.24v7.81c0,11.12,7.52,12.78,12.01,12.78,1.71,0,3.42-.39,4.84-1.09,1.14-.57,2.07-1.42,2.71-2.42,2.31,2.35,5.51,3.72,9.28,3.72,2.3,0,4.53-.62,6.43-1.71,1.24,.96,2.78,1.46,4.31,1.46s3.2-.54,4.46-1.58c1.28,1.04,2.9,1.58,4.51,1.58,3.53,0,7.1-2.56,7.1-7.46v-9.71c0-3.08,1.56-3.08,2.15-3.08,.65,0,1.27-.07,1.86-.2v13.19c0,4.76,3.49,7.25,6.94,7.25,1.58,0,3.17-.52,4.43-1.55,2.1,1.16,4.56,1.81,7.14,1.81,4.53,0,8.44-1.7,11.3-4.57v.95c0,2.04,1.13,3.89,2.95,4.81,.78,.4,1.62,.59,2.46,.59,1.12,0,2.23-.35,3.17-1.04l5.03-3.66c1.37,1.74,3.46,2.65,5.55,2.65,3.53,0,7.1-2.56,7.1-7.46v-10.64c0-.45,.09-2.71,1.79-2.71,.12,0,.2,0,.25,.02,.11,.2,.4,.88,.4,2.6v10.74c0,4.9,3.57,7.46,7.1,7.46,2.83,0,5.68-1.65,6.7-4.82,3.07,3.2,7.52,5.08,12.81,5.08,4.98,0,8.78-1.42,11.93-4.44,2.08-1.94,2.3-4.24,2.3-5.14,0-1.17-.3-2.26-.82-3.2,1.48-1.24,2.32-3.13,2.32-5.48Z"/><g><path class="g" d="M119.8,26.87l-5.45-3.97c-.93-.67-2.23-.01-2.23,1.13v7.93c0,1.15,1.3,1.81,2.23,1.13l5.45-3.97c.77-.56,.77-1.71,0-2.27Z"/><path class="c" d="M119.81,44.81l-5.46-3.97c-.92-.67-2.22-.01-2.22,1.13v7.94c0,1.14,1.3,1.8,2.22,1.13l5.46-3.97c.77-.56,.77-1.7,0-2.26Z"/><path class="c" d="M119.77,62.74l-5.45-3.96c-.93-.67-2.23-.01-2.23,1.13v7.93c0,1.15,1.3,1.81,2.23,1.13l5.45-3.96c.77-.56,.77-1.71,0-2.27Z"/><path class="g" d="M30.65,67.26c-6.56,0-8.01-4.03-8.01-8.78v-11.57h-2.01c-2.38,0-2.79-1.65-2.79-2.48s.41-2.48,2.79-2.48h2.01v-4.29c0-2.84,2.01-3.36,3.05-3.36s3.05,.52,3.05,3.36v4.29h3.87c2.38,0,2.79,1.65,2.79,2.48s-.41,2.48-2.79,2.48h-3.87v11.52c0,2.43,.83,3.72,2.38,3.72,.26,0,.62-.05,.98-.1,.41-.05,.52-.05,.72-.05,1.55,0,2.38,1.14,2.38,2.32,0,.98-.57,1.81-1.5,2.27-.83,.41-1.91,.67-3.05,.67Z"/><path class="g" d="M61.16,63.95c0,2.79-2.01,3.25-2.94,3.25s-2.94-.46-2.94-3.25v-1.19h-.1c-1.08,2.48-4.03,4.7-7.7,4.7-6.46,0-9.14-4.96-9.14-10.02v-12.5c0-2.94,2.07-3.46,3.1-3.46s3.1,.52,3.1,3.46v10.74c0,2.94,.67,6.61,4.65,6.61s5.79-3.41,5.79-6.71v-10.64c0-2.94,2.07-3.46,3.1-3.46s3.1,.52,3.1,3.46v19.01Z"/><path class="g" d="M67.18,67.2c-1.03,0-3.1-.52-3.1-3.46v-18.96c0-2.79,2.01-3.31,2.94-3.31,.98,0,3,.52,3,3.31v1.29h.1c.98-2.69,3.46-4.85,6.46-4.85,1.86,0,3.2,.93,3.2,2.74,0,1.6-.98,3-3.36,3-3.93,0-6.15,2.94-6.15,7.08v9.71c0,2.94-2.07,3.46-3.1,3.46Z"/><path class="g" d="M82.28,30.69c0-2.94,2.07-3.46,3.1-3.46s3.1,.52,3.1,3.46v14.41h.15c1.29-1.6,3.77-3.87,8.32-3.87,7.08,0,12.03,5.68,12.03,13.02s-4.65,13.22-12.19,13.22c-3.46,0-6.82-1.6-8.52-4.44h-.1v.93c0,2.79-2.01,3.25-2.94,3.25s-2.94-.46-2.94-3.25V30.69Zm13.27,15.6c-4.55,0-7.28,4.18-7.28,8.06s2.74,7.95,7.28,7.95c4.8,0,7.13-4.18,7.13-8.06s-2.32-7.95-7.13-7.95Z"/><path class="g" d="M124.15,44.74c0-2.79,2.01-3.25,2.94-3.25s2.94,.46,2.94,3.25v1.19h.1c1.08-2.48,4.03-4.7,7.7-4.7,6.46,0,9.14,4.96,9.14,10.02v12.5c0,2.94-2.07,3.46-3.1,3.46s-3.1-.52-3.1-3.46v-10.74c0-2.94-.67-6.61-4.65-6.61s-5.79,3.41-5.79,6.71v10.64c0,2.94-2.07,3.46-3.1,3.46s-3.1-.52-3.1-3.46v-19.01Z"/><path class="g" d="M156.26,56.31c.26,3.51,3.46,6.09,7.08,6.09,2.58,0,4.13-.83,5.68-2.12,.88-.72,1.45-.88,2.12-.88,1.39,0,2.48,.98,2.48,2.48,0,.52-.21,1.45-1.03,2.22-2.43,2.32-5.22,3.36-9.19,3.36-7.64,0-13.33-4.91-13.33-12.96s5.63-13.27,13.12-13.27c5.99,0,10.85,3.41,11.83,10.69,.05,.52,.1,.88,.1,1.29,0,2.17-1.19,3.1-3.25,3.1h-15.6Zm12.71-4.44c0-3.2-1.81-5.99-5.84-5.99-3.67,0-6.61,2.53-6.87,5.99h12.71Z"/></g></svg>